# xmcd CD database file
#
# Track frame offsets:
#	150
#	22493
#	40992
#	67220
#	87883
#	110907
#	134471
#	155897
#	171463
#	195593
#	220840
#	244562
#
# Disc length: 3574 seconds
#
# Revision: 0
# Processed by: cddbd v1.5.2PL0 Copyright (c) Steve Scherf et al.
# Submitted via: CDex 1.82
#
DISCID=bd0df40c
DTITLE=LifeScapes - Set the Mood: Late Night Jazz
DYEAR=2008
DGENRE=Jazz
TTITLE0=City Lights
TTITLE1=Night Cap
TTITLE2=Minor Details
TTITLE3=After Sunset
TTITLE4=Secret Crush
TTITLE5=Counting Stars
TTITLE6=Stayin' In Tonight
TTITLE7=Cosmopolitan
TTITLE8=Ballo di Notre
TTITLE9=Moonlight
TTITLE10=Midnight Lullaby
TTITLE11=Don't Say Goodnight
EXTD=YEAR: 2008
EXTT0=
EXTT1=
EXTT2=
EXTT3=
EXTT4=
EXTT5=
EXTT6=
EXTT7=
EXTT8=
EXTT9=
EXTT10=
EXTT11=
PLAYORDER=
